<svg width="53" height="53" viewBox="0 0 53 53" fill="none" xmlns="http://www.w3.org/2000/svg">
<path d="M39.375 3.51722C43.3655 5.82115 46.6793 9.13492 48.9832 13.1255C51.2871 17.116 52.5 21.6427 52.5 26.2506C52.5 30.8584 51.287 35.3851 48.983 39.3756C46.6791 43.3661 43.3653 46.6798 39.3747 48.9837C35.3842 51.2876 30.8575 52.5005 26.2496 52.5004C21.6417 52.5003 17.1151 51.2873 13.1246 48.9833C9.13408 46.6793 5.82039 43.3655 3.51654 39.3749C1.2127 35.3843 -0.000117048 30.8576 8.47258e-09 26.2497L0.0131253 25.3992C0.160133 20.8658 1.47931 16.4479 3.84205 12.5761C6.20479 8.70428 9.53047 5.51078 13.4948 3.30691C17.4592 1.10304 21.927 -0.0359908 26.4626 0.000866895C30.9983 0.0377246 35.447 1.24921 39.375 3.51722ZM23.625 13.1247V26.3075L23.6329 26.4492L23.6854 26.8036L23.6985 26.8692C23.7348 27.0176 23.784 27.1625 23.8455 27.3023L23.9505 27.5176L24.1132 27.7775L24.297 28.0058L24.4939 28.2001L24.7406 28.397L24.9506 28.5335L25.1344 28.6253L25.4809 28.7592L25.8353 28.8406L26.0505 28.8668L26.376 28.8721L26.6726 28.8406L26.9561 28.7776L27.2344 28.6831L27.5179 28.5492L27.6885 28.4442L35.5819 23.1837C36.1611 22.7973 36.5631 22.1967 36.6995 21.5139C36.8358 20.8311 36.6954 20.1221 36.309 19.5428C35.9226 18.9636 35.322 18.5616 34.6392 18.4252C33.9564 18.2889 33.2474 18.4293 32.6681 18.8157L28.875 21.341V13.1247C28.8749 12.4818 28.6389 11.8612 28.2116 11.3807C27.7844 10.9003 27.1957 10.5933 26.5571 10.5181L26.25 10.4997C25.5538 10.4997 24.8861 10.7763 24.3938 11.2686C23.9016 11.7608 23.625 12.4285 23.625 13.1247Z" fill="#14AE5C"/>
</svg>
