<svg width="43" height="53" viewBox="0 0 43 53" fill="none" xmlns="http://www.w3.org/2000/svg">
<path d="M28.955 37.6825C36.8825 39.1788 42.5 43.0113 42.5 47.5V52.75H0.5V47.5C0.5 43.0113 6.1175 39.1788 14.045 37.6825L21.5 50.125L28.955 37.6825ZM11 16H32V21.25C32 24.0348 30.8938 26.7055 28.9246 28.6747C26.9555 30.6438 24.2848 31.75 21.5 31.75C18.7152 31.75 16.0445 30.6438 14.0754 28.6747C12.1062 26.7055 11 24.0348 11 21.25V16ZM11 13.375L12.0763 2.61253C12.1415 1.96278 12.4467 1.3607 12.9321 0.923853C13.4174 0.487005 14.0482 0.246761 14.7013 0.250033H28.325C29.6638 0.250033 30.7925 1.27378 30.9237 2.61253L32 13.375H11ZM21.5 2.87503H18.875V5.50003H16.25V8.12503H18.875V10.75H21.5V8.12503H24.125V5.50003H21.5V2.87503Z" fill="#14AE5C"/>
</svg>
